<svg width="33" height="33" viewBox="0 0 33 33" fill="none" xmlns="http://www.w3.org/2000/svg">
<path d="M16.9124 15.8817C16.0919 15.8817 15.305 15.5558 14.7248 14.9756C14.1446 14.3954 13.8187 13.6085 13.8187 12.788C13.8187 11.9675 14.1446 11.1806 14.7248 10.6004C15.305 10.0202 16.0919 9.69424 16.9124 9.69424C17.7329 9.69424 18.5198 10.0202 19.1 10.6004C19.6802 11.1806 20.0062 11.9675 20.0062 12.788C20.0062 13.1943 19.9261 13.5966 19.7707 13.9719C19.6152 14.3473 19.3873 14.6883 19.1 14.9756C18.8127 15.2629 18.4717 15.4908 18.0963 15.6462C17.721 15.8017 17.3187 15.8817 16.9124 15.8817ZM16.9124 4.12549C14.615 4.12549 12.4116 5.03814 10.7871 6.66268C9.16257 8.28721 8.24991 10.4906 8.24991 12.788C8.24991 19.2849 16.9124 28.8755 16.9124 28.8755C16.9124 28.8755 25.5749 19.2849 25.5749 12.788C25.5749 10.4906 24.6623 8.28721 23.0377 6.66268C21.4132 5.03814 19.2098 4.12549 16.9124 4.12549Z" fill="#58315A"/>
</svg>
