<svg width="335" height="337" viewBox="0 0 335 337" fill="none" xmlns="http://www.w3.org/2000/svg">
<rect x="4" y="5" width="157" height="157" rx="24" fill="#58315A"/>
<rect x="2" y="2" width="153" height="153" rx="22" fill="#B48AFF"/>
<rect x="43" y="49" width="72" height="53" fill="#FFF8ED"/>
<path d="M52.4836 71.4755L52.486 71.473C53.6782 70.2288 55.2152 69.625 56.9343 69.625H99.9583C101.677 69.625 103.213 70.227 104.428 71.4425C105.645 72.6593 106.25 74.1959 106.25 75.9166C106.25 77.6078 105.684 79.133 104.516 80.3535L52.4836 71.4755ZM52.4836 71.4755C51.3161 72.6982 50.7499 74.2243 50.7499 75.9166C50.7499 77.6352 51.352 79.1711 52.5674 80.3865C53.7843 81.6034 55.3209 82.2083 57.0416 82.2083H100.066M52.4836 71.4755L100.066 82.2083M100.066 82.2083C101.786 82.2083 103.324 81.6019 104.515 80.3548L100.066 82.2083ZM87.2682 84.3199L87.2633 84.315C86.0459 83.1019 84.5101 82.5 82.7916 82.5H56.9343C55.2152 82.5 53.6782 83.1038 52.486 84.348L52.4836 84.3505C51.3161 85.5732 50.7499 87.0993 50.7499 88.7916C50.7499 90.5102 51.352 92.0461 52.5674 93.2615C53.7843 94.4784 55.3209 95.0833 57.0416 95.0833H82.8989C84.6197 95.0833 86.1569 94.4769 87.3483 93.2298C88.5173 92.0091 89.0833 90.4834 89.0833 88.7916C89.0833 87.0731 88.4813 85.5373 87.2682 84.3199ZM104.514 67.4853L104.516 67.4828C105.684 66.2601 106.25 64.734 106.25 63.0416C106.25 61.3209 105.645 59.7843 104.428 58.5675C103.213 57.352 101.677 56.75 99.9583 56.75H56.9343C55.2152 56.75 53.6782 57.3538 52.486 58.598L52.4836 58.6005C51.3161 59.8232 50.7499 61.3493 50.7499 63.0416C50.7499 64.7602 51.3518 66.296 52.5649 67.5134L52.5699 67.5183C53.7872 68.7314 55.3231 69.3333 57.0416 69.3333H100.066C101.785 69.3333 103.322 68.7295 104.514 67.4853ZM52.7499 108.25H51.9215L51.3357 108.836L41.4649 118.707C41.0065 119.165 40.621 119.344 40.31 119.404C40.0001 119.465 39.5826 119.443 38.9983 119.193L38.9969 119.192C38.4141 118.943 38.0981 118.651 37.9144 118.369C37.7294 118.086 37.5833 117.668 37.5833 117.009V50.1666C37.5833 48.3414 38.2104 46.8273 39.521 45.5167C40.828 44.2097 42.3403 43.5833 44.1666 43.5833H112.833C114.659 43.5833 116.173 44.2095 117.483 45.5169C118.791 46.8269 119.417 48.3409 119.417 50.1666V101.667C119.417 103.492 118.79 105.006 117.483 106.317C116.173 107.624 114.659 108.25 112.833 108.25H52.7499Z" fill="#6835C2" stroke="#58315A" stroke-width="4"/>
<rect x="2" y="2" width="153" height="153" rx="22" stroke="#58315A" stroke-width="4"/>
<rect x="178" y="5" width="157" height="157" rx="24" fill="#58315A"/>
<rect x="176" y="3" width="153" height="153" rx="22" fill="#74CEE2"/>
<path d="M217.125 75H235.547C235.352 76.0545 235.25 77.1405 235.25 78.25C235.25 82.0983 236.478 85.6653 238.561 88.5735C234.349 89.0473 230.819 91.7709 229.199 95.5147C224.414 95.3876 220.725 94.5416 218.09 93.092C215.336 91.5776 213.659 89.372 213.03 86.3446L213 86.03V79.125C213 76.8486 214.849 75 217.125 75ZM273.446 91.0943C271.722 89.6975 269.638 88.8255 267.441 88.5753L268.75 78.25H270.75C270.75 78.2494 270.75 78.2488 270.75 78.2482C270.75 77.1393 270.648 76.054 270.453 75H288.875C291.151 75 293 76.8486 293 79.125V86.058L292.983 86.289C292.519 89.3509 290.956 91.5574 288.289 93.0739C285.647 94.5765 281.836 95.4406 276.805 95.5247C276.063 93.8052 274.913 92.2827 273.446 91.0943ZM266.125 96C268.401 96 270.25 97.8486 270.25 100.125V107.058L270.233 107.289C269.769 110.351 268.206 112.557 265.539 114.074C262.755 115.657 258.674 116.532 253.235 116.532C247.82 116.532 243.707 115.669 240.84 114.092C238.086 112.578 236.409 110.372 235.78 107.345L235.75 107.03V100.125C235.75 97.8486 237.599 96 239.875 96H266.125ZM253 68C255.718 68 258.326 69.0799 260.248 71.0022C262.17 72.9244 263.25 75.5315 263.25 78.25C263.25 80.9685 262.17 83.5756 260.248 85.4978C258.326 87.4201 255.718 88.5 253 88.5C250.282 88.5 247.674 87.4201 245.752 85.4978C243.83 83.5756 242.75 80.9685 242.75 78.25C242.75 75.5315 243.83 72.9244 245.752 71.0022C247.674 69.0799 250.282 68 253 68ZM275.75 47C278.468 47 281.076 48.0799 282.998 50.0022C284.92 51.9244 286 54.5315 286 57.25C286 59.9685 284.92 62.5756 282.998 64.4978C281.076 66.4201 278.468 67.5 275.75 67.5C273.032 67.5 270.424 66.4201 268.502 64.4978C266.58 62.5756 265.5 59.9685 265.5 57.25C265.5 54.5315 266.58 51.9244 268.502 50.0022C270.424 48.0799 273.032 47 275.75 47ZM230.25 47C232.968 47 235.576 48.0799 237.498 50.0022C239.42 51.9244 240.5 54.5315 240.5 57.25C240.5 59.9685 239.42 62.5756 237.498 64.4978C235.576 66.4201 232.968 67.5 230.25 67.5C227.532 67.5 224.924 66.4201 223.002 64.4978C221.08 62.5756 220 59.9685 220 57.25C220 54.5315 221.08 51.9244 223.002 50.0022C224.924 48.0799 227.532 47 230.25 47Z" fill="#FFF8ED" stroke="#58315A" stroke-width="4"/>
<path d="M268.5 98.5C258.202 97.7908 250.36 97.7188 237.5 98.5C237.284 102.393 236.994 104.571 238 108.5C247.113 118.745 263.232 116.136 268.5 108C268.69 107.708 268.592 102.357 268.5 98.5Z" fill="#117B93" stroke="#58315A"/>
<circle cx="253" cy="78" r="9" fill="#117B93"/>
<rect x="176" y="3" width="153" height="153" rx="22" stroke="#58315A" stroke-width="4"/>
<rect x="4" y="180" width="157" height="157" rx="24" fill="#58315A"/>
<rect x="2" y="177" width="153" height="153" rx="22" fill="#F16C68"/>
<path d="M90.4066 277.377L90.1718 276.708H89.463H86.4167V271.792H89.463H90.1722L90.4067 271.122C91.6874 267.468 95.1542 264.875 99.25 264.875C101.736 264.875 104.121 265.863 105.879 267.621C107.637 269.379 108.625 271.764 108.625 274.25C108.625 276.736 107.637 279.121 105.879 280.879C104.121 282.637 101.736 283.625 99.25 283.625L99.2472 283.625C97.3072 283.631 95.4137 283.032 93.8294 281.912C92.2452 280.793 91.0489 279.208 90.4066 277.377ZM66.5941 271.125L66.8296 271.792H67.5371H70.5834V276.708H67.5371H66.8282L66.5935 277.377C65.9512 279.208 64.7549 280.793 63.1706 281.912C61.5864 283.032 59.6929 283.631 57.7529 283.625H57.75C55.2636 283.625 52.8791 282.637 51.1209 280.879C49.3628 279.121 48.375 276.736 48.375 274.25C48.375 270.154 50.9678 266.687 54.6224 265.407L55.2917 265.172V264.463V261.417H60.2084V264.463V265.17L60.8756 265.406C63.5299 266.343 65.6573 268.47 66.5941 271.125ZM60.8777 241.593L60.2084 241.828V242.537V245.583H55.2917V242.537V241.828L54.6228 241.594C52.7923 240.951 51.2072 239.755 50.0876 238.171C48.968 236.586 48.3694 234.693 48.375 232.753V232.75C48.375 230.264 49.3628 227.879 51.1209 226.121C52.8791 224.363 55.2636 223.375 57.75 223.375C60.2364 223.375 62.621 224.363 64.3792 226.121C66.1373 227.879 67.125 230.264 67.125 232.75C67.125 236.846 64.5323 240.313 60.8777 241.593ZM99.25 269.792C98.0676 269.792 96.9336 270.261 96.0975 271.097C95.2614 271.934 94.7917 273.068 94.7917 274.25C94.7917 275.432 95.2614 276.566 96.0975 277.403C96.9336 278.239 98.0676 278.708 99.25 278.708C100.432 278.708 101.566 278.239 102.403 277.403C103.239 276.566 103.708 275.432 103.708 274.25C103.708 273.068 103.239 271.934 102.403 271.097C101.566 270.261 100.432 269.792 99.25 269.792ZM99.25 240.667C100.827 240.667 102.339 240.04 103.454 238.925C104.569 237.81 105.195 236.298 105.195 234.721C105.195 233.144 104.569 231.632 103.454 230.517C102.339 229.402 100.827 228.776 99.25 228.776C97.6732 228.776 96.161 229.402 95.046 230.517C93.931 231.632 93.3046 233.144 93.3046 234.721C93.3046 236.298 93.931 237.81 95.046 238.925C96.161 240.04 97.6732 240.667 99.25 240.667ZM99.25 221.888C102.654 221.888 105.918 223.24 108.325 225.647C110.731 228.053 112.083 231.318 112.083 234.721C112.083 237.104 111.281 239.853 110.009 242.69C108.744 245.513 107.048 248.35 105.337 250.888C103.629 253.423 101.919 255.641 100.634 257.226C100.082 257.909 99.6087 258.473 99.25 258.893C98.8913 258.473 98.4184 257.909 97.8657 257.226C96.5816 255.641 94.8711 253.423 93.1626 250.888C91.4522 248.35 89.7561 245.513 88.4907 242.69C87.2193 239.853 86.4167 237.104 86.4167 234.721C86.4167 231.318 87.7688 228.053 90.1755 225.647C92.5822 223.24 95.8464 221.888 99.25 221.888ZM57.75 269.792C56.5676 269.792 55.4336 270.261 54.5975 271.097C53.7614 271.934 53.2917 273.068 53.2917 274.25C53.2917 275.432 53.7614 276.566 54.5975 277.403C55.4336 278.239 56.5676 278.708 57.75 278.708C58.9325 278.708 60.0665 278.239 60.9026 277.403C61.7387 276.566 62.2084 275.432 62.2084 274.25C62.2084 273.068 61.7387 271.934 60.9026 271.097C60.0665 270.261 58.9325 269.792 57.75 269.792ZM57.75 228.292C56.5676 228.292 55.4336 228.761 54.5975 229.598C53.7614 230.434 53.2917 231.568 53.2917 232.75C53.2917 233.932 53.7614 235.066 54.5975 235.903C55.4336 236.739 56.5676 237.208 57.75 237.208C58.9325 237.208 60.0665 236.739 60.9026 235.903C61.7387 235.066 62.2084 233.932 62.2084 232.75C62.2084 231.568 61.7387 230.434 60.9026 229.598C60.0665 228.761 58.9325 228.292 57.75 228.292ZM76.0417 271.792H80.9584V276.708H76.0417V271.792ZM60.2084 255.958H55.2917V251.042H60.2084V255.958Z" fill="#B62B27" stroke="#6D4A6C" stroke-width="2"/>
<circle cx="57.75" cy="232.75" r="3.5" fill="#FFF8ED"/>
<circle cx="99" cy="235" r="5" fill="#FFF8ED"/>
<circle cx="99" cy="274" r="4" fill="#FFF8ED"/>
<circle cx="57.75" cy="274.25" r="3.5" fill="#FFF8ED"/>
<rect x="2" y="177" width="153" height="153" rx="22" stroke="#58315A" stroke-width="4"/>
<rect x="178" y="179" width="157" height="157" rx="24" fill="#58315A"/>
<rect x="176" y="177" width="153" height="153" rx="22" fill="#CFDAED"/>
<g clip-path="url(#clip0_2_1392)">
<path d="M257.308 221.935C257.444 221.365 257.77 220.85 258.273 220.48L258.447 220.371C258.68 220.225 258.942 220.12 259.23 220.05C259.586 219.978 259.973 219.984 260.332 220.062C260.931 220.205 261.476 220.571 261.826 221.112L261.833 221.123L261.841 221.134L278.702 246.419L278.705 246.424C279.715 247.928 280.25 249.718 280.25 251.553V261.889C280.25 263.719 281.418 265.337 283.142 265.921L283.15 265.924L294.288 269.636L294.297 269.639C295.314 269.973 296 270.919 296 272V285.5C296 286.272 295.641 287.009 295.02 287.489C294.407 287.962 293.619 288.118 292.87 287.915L292.862 287.913L269.125 281.585L269.124 281.584C262.126 279.722 257.25 273.373 257.25 266.122V249.5C257.25 248.115 258.366 247 259.75 247C261.134 247 262.25 248.115 262.25 249.5V260.75C262.25 263.092 264.158 265 266.5 265C268.842 265 270.75 263.092 270.75 260.75V248.811C270.75 247.484 270.409 246.182 269.737 245.027L257.595 223.778C257.594 223.777 257.594 223.776 257.593 223.776C257.45 223.522 257.357 223.276 257.303 223.034C257.221 222.643 257.229 222.262 257.305 221.948L257.305 221.948L257.308 221.935ZM248.678 221.935L248.678 221.938C248.766 222.305 248.769 222.664 248.69 223L248.687 223.014L248.684 223.029C248.63 223.272 248.537 223.52 248.392 223.776C248.392 223.776 248.392 223.777 248.391 223.778L236.263 245.027C235.59 246.185 235.25 247.501 235.25 248.811V260.75C235.25 263.092 237.158 265 239.5 265C241.842 265 243.75 263.092 243.75 260.75V249.5C243.75 248.115 244.866 247 246.25 247C247.634 247 248.75 248.115 248.75 249.5V266.136C248.75 273.385 243.876 279.724 236.873 281.599L213.152 287.927L213.144 287.929C212.402 288.13 211.597 287.967 210.991 287.501C210.378 287.028 210 286.274 210 285.5V272C210 270.923 210.685 269.968 211.714 269.621C211.715 269.621 211.716 269.621 211.716 269.621L222.85 265.91L222.858 265.907C224.583 265.323 225.75 263.705 225.75 261.875V251.539C225.75 249.717 226.291 247.935 227.301 246.4C227.302 246.399 227.303 246.397 227.304 246.396L244.145 221.149L244.152 221.138L244.16 221.126C244.512 220.582 245.062 220.215 245.665 220.074L245.675 220.072C246.041 219.984 246.4 219.981 246.736 220.06L246.747 220.062C247.055 220.133 247.308 220.237 247.514 220.369L247.867 220.597C248.274 220.943 248.553 221.413 248.678 221.935Z" fill="#6885B8" stroke="#58315A" stroke-width="4"/>
</g>
<rect x="176" y="177" width="153" height="153" rx="22" stroke="#58315A" stroke-width="4"/>
<defs>
<clipPath id="clip0_2_1392">
<rect width="90" height="72" fill="white" transform="translate(208 218)"/>
</clipPath>
</defs>
</svg>
