<svg width="33" height="33" viewBox="0 0 33 33" fill="none" xmlns="http://www.w3.org/2000/svg">
<path d="M10.0556 29.3865C9.67041 29.586 9.30446 29.5421 8.95778 29.2548C8.6111 28.9685 8.43776 28.551 8.43776 28.0024L8.43776 6.3441C8.43776 5.52116 8.66426 4.81642 9.11725 4.22989C9.56948 3.64435 10.1134 3.35159 10.749 3.35159L22.3051 3.35159C22.9406 3.35159 23.4849 3.64435 23.9379 4.22989C24.3902 4.81642 24.6163 5.52116 24.6163 6.3441L24.6163 28.0024C24.6163 28.551 24.4429 28.9685 24.0963 29.2548C23.7496 29.5421 23.3836 29.586 22.9984 29.3865L16.527 25.7954L10.0556 29.3865Z" fill="#58315A"/>
</svg>
