<svg width="33" height="33" viewBox="0 0 33 33" fill="none" xmlns="http://www.w3.org/2000/svg">
<path d="M26.1251 23.3751V16.225C25.4376 16.3625 24.7501 16.5 24.0626 16.5H23.3751V24.7501H9.62509V15.125C9.62509 11.275 12.6501 8.25004 16.5001 8.25004C16.6376 6.46254 17.4626 4.95004 18.5626 3.71254C18.1501 3.16254 17.3251 2.75004 16.5001 2.75004C14.9876 2.75004 13.7501 3.98754 13.7501 5.50004V5.91254C9.62509 7.15004 6.87509 10.8625 6.87509 15.125V23.3751L4.12509 26.1251V27.5001H28.8751V26.1251L26.1251 23.3751ZM13.7501 28.8751C13.7501 30.3876 14.9876 31.6251 16.5001 31.6251C18.0126 31.6251 19.2501 30.3876 19.2501 28.8751H13.7501ZM28.8751 8.93754C28.8751 11.55 26.6751 13.75 24.0626 13.75C21.4501 13.75 19.2501 11.55 19.2501 8.93754C19.2501 6.32504 21.4501 4.12504 24.0626 4.12504C26.6751 4.12504 28.8751 6.32504 28.8751 8.93754Z" fill="#58315A"/>
</svg>
